<svg width="33" height="32" viewBox="0 0 33 32" fill="none" xmlns="http://www.w3.org/2000/svg">
<path d="M5.95381 5.92C6.13932 5.73423 6.35963 5.58685 6.60214 5.4863C6.84465 5.38574 7.10461 5.33398 7.36714 5.33398C7.62968 5.33398 7.88963 5.38574 8.13215 5.4863C8.37466 5.58685 8.59497 5.73423 8.78048 5.92L16.0338 13.1707L23.2871 5.92C23.4727 5.73439 23.6931 5.58717 23.9356 5.48672C24.1781 5.38627 24.438 5.33457 24.7005 5.33457C24.963 5.33457 25.2229 5.38627 25.4654 5.48672C25.7079 5.58717 25.9282 5.73439 26.1138 5.92C26.2994 6.1056 26.4466 6.32594 26.5471 6.56844C26.6475 6.81094 26.6992 7.07085 26.6992 7.33333C26.6992 7.59581 26.6475 7.85572 26.5471 8.09822C26.4466 8.34072 26.2994 8.56106 26.1138 8.74666L18.8631 16L26.1138 23.2533C26.4886 23.6282 26.6992 24.1366 26.6992 24.6667C26.6992 25.1968 26.4886 25.7052 26.1138 26.08C25.739 26.4548 25.2306 26.6654 24.7005 26.6654C24.1704 26.6654 23.662 26.4548 23.2871 26.08L16.0338 18.8293L8.78048 26.08C8.40564 26.4548 7.89725 26.6654 7.36714 26.6654C6.83704 26.6654 6.32865 26.4548 5.95381 26.08C5.57897 25.7052 5.36839 25.1968 5.36839 24.6667C5.36839 24.1366 5.57897 23.6282 5.95381 23.2533L13.2045 16L5.95381 8.74666C5.76804 8.56116 5.62066 8.34085 5.52011 8.09833C5.41956 7.85582 5.3678 7.59586 5.3678 7.33333C5.3678 7.0708 5.41956 6.81084 5.52011 6.56833C5.62066 6.32581 5.76804 6.1055 5.95381 5.92Z" fill="black"/>
</svg>
